<?xml version="1.0" encoding="utf-8"?>
<!-- Generator: Adobe Illustrator 22.0.1, SVG Export Plug-In . SVG Version: 6.00 Build 0)  -->
<svg version="1.1" id="Layer_1" xmlns="http://www.w3.org/2000/svg" xmlns:xlink="http://www.w3.org/1999/xlink" x="0px" y="0px"
	 viewBox="0 0 100 100" style="enable-background:new 0 0 100 100;" xml:space="preserve">
<g>
	<path d="M89,14H70V8.3936C70,4.0405,66.95208,1,62.58888,1h-23.5948C34.43648,1,31,4.1787,31,8.3936V14H11
		c-0.82812,0-1.5,0.6714-1.5,1.5S10.17188,17,11,17h5.998L17,89.5737C17,94.9331,21.50588,100,26.27248,100h47.9013
		C79.25677,100,82,94.6279,82,89.5737v-72.477c0.02728-0.0283,0.05267-0.065,0.07908-0.0967H89c0.82808,0,1.5-0.6714,1.5-1.5
		S89.82808,14,89,14z M34,8.3936C34,5.5093,36.51268,4,38.99408,4h23.5948C65.30958,4,67,5.6836,67,8.3936V14H34V8.3936z
		 M79,89.5737C79,93.2383,77.19427,97,74.17377,97h-47.9013C23.166,97,20,93.2661,20,89.5737V17h59V89.5737z"/>
	<path d="M37.5,79.5c0.82808,0,1.5-0.6714,1.5-1.5V29c0-0.8286-0.67192-1.5-1.5-1.5c-0.82812,0-1.5,0.6714-1.5,1.5v49
		C36,78.8286,36.67188,79.5,37.5,79.5z"/>
	<path d="M50.5,79.5c0.82808,0,1.5-0.6714,1.5-1.5V29c0-0.8286-0.67192-1.5-1.5-1.5c-0.82812,0-1.5,0.6714-1.5,1.5v49
		C49,78.8286,49.67188,79.5,50.5,79.5z"/>
	<path d="M62.5,79.5c0.82808,0,1.5-0.6714,1.5-1.5V29c0-0.8286-0.67192-1.5-1.5-1.5c-0.82812,0-1.5,0.6714-1.5,1.5v49
		C61,78.8286,61.67188,79.5,62.5,79.5z"/>
</g>
</svg>
